<svg preserveAspectRatio="none" width="100%" height="100%" overflow="visible" style="display: block;" viewBox="0 0 70.0825 117.75" fill="none" xmlns="http://www.w3.org/2000/svg">
<g id="Frame 1261159185">
<path id="Rectangle 1946" d="M12.201 18.1729H51.3562C55.8929 18.173 59.5701 21.8511 59.5701 26.3877V55.3282C59.5701 59.8648 55.8929 63.5429 51.3562 63.543H12.201C7.66426 63.543 3.98613 59.8649 3.98613 55.3282V26.3877C3.98613 21.851 7.66426 18.1729 12.201 18.1729Z" stroke="var(--stroke-0, #0C4068)" stroke-width="4"/>
<path id="Rectangle 1947" d="M63.2731 32.6434C65.9292 32.6435 68.0826 34.7968 68.0826 37.4529V42.5604C68.0826 45.2165 65.9292 47.3698 63.2731 47.3699H60.1656V32.6434H63.2731Z" fill="var(--fill-0, #E48375)" stroke="var(--stroke-0, #0C4068)" stroke-width="4"/>
<path id="Line 22" d="M46.2488 7.54653L46.2488 17.761" stroke="var(--stroke-0, #0C4068)" stroke-width="4"/>
<path id="Line 23" d="M17.3078 7.41535L17.3078 17.6298" stroke="var(--stroke-0, #0C4068)" stroke-width="4"/>
<circle id="Ellipse 71" cx="46.2488" cy="4.25602" r="2.25602" fill="var(--fill-0, #E48375)" stroke="var(--stroke-0, #0C4068)" stroke-width="4"/>
<path id="Ellipse 73" d="M46.2488 32.3458C46.2488 29.9952 44.3433 28.0898 41.9928 28.0898C39.6422 28.0898 37.7367 29.9952 37.7367 32.3458" stroke="var(--stroke-0, #0C4068)" stroke-width="4" stroke-linecap="round"/>
<path id="Ellipse 75" d="M17.3078 48.5187C19.8614 50.6467 23.7865 52.7747 31.7783 52.7747C39.7701 52.7747 44.1208 50.6467 46.2488 48.5187" stroke="var(--stroke-0, #0C4068)" stroke-width="4" stroke-linecap="round"/>
<path id="Ellipse 74" d="M25.8199 32.3458C25.8199 29.9952 23.9144 28.0898 21.5638 28.0898C19.2133 28.0898 17.3078 29.9952 17.3078 32.3458" stroke="var(--stroke-0, #0C4068)" stroke-width="4" stroke-linecap="round"/>
<circle id="Ellipse 72" cx="17.3078" cy="4.25602" r="2.25602" fill="var(--fill-0, #E48375)" stroke="var(--stroke-0, #0C4068)" stroke-width="4"/>
<path id="Rectangle 1946_2" d="M20.4289 64.4078V79.162M41.9928 64.4078V79.162" stroke="var(--stroke-0, #0C4068)" stroke-width="4"/>
<path id="Rectangle 1947_2" d="M3.84863 81H58.0381C58.8139 81 59.4434 81.6294 59.4434 82.4053V95.5947C59.4434 96.3706 58.8139 97 58.0381 97H3.84863C3.07277 97 2.44336 96.3706 2.44336 95.5947V82.4053C2.44336 81.6294 3.07277 81 3.84863 81Z" stroke="var(--stroke-0, #0C4068)" stroke-width="4"/>
</g>
</svg>
