<svg preserveAspectRatio="none" width="100%" height="100%" overflow="visible" style="display: block;" viewBox="0 0 85.1205 108.684" fill="none" xmlns="http://www.w3.org/2000/svg">
<g id="Frame 1261159186">
<path id="Rectangle 1916" d="M22.6988 24.1067C22.6988 11.8975 32.6073 2 44.8301 2V2C57.0529 2 66.9614 11.8975 66.9614 24.1067V43.45C66.9614 55.6591 57.0529 65.5566 44.8301 65.5566V65.5566C32.6073 65.5566 22.6988 55.6591 22.6988 43.45V24.1067Z" fill="var(--fill-0, white)" stroke="var(--stroke-0, #0C4068)" stroke-width="4"/>
<path id="Rectangle 1946" d="M34 62.9998V76.9998M56 62.9998V76.9998" stroke="var(--stroke-0, #0C4068)" stroke-width="4"/>
<path id="Rectangle 1948" d="M23 24.9998C22.9377 24.9998 22.8742 24.9998 22.8097 24.9998C19.0488 24.9998 16 28.0485 16 31.8094V34.1901C16 37.951 19.0488 40.9998 22.8096 40.9998L23 40.9998" stroke="var(--stroke-0, #0C4068)" stroke-width="4"/>
<path id="Ellipse 73" d="M59.0169 30.3735C59.0169 28.4931 56.9844 26.9687 54.4771 26.9687C51.9699 26.9687 49.9374 28.4931 49.9374 30.3735" stroke="var(--stroke-0, #0C4068)" stroke-width="4" stroke-linecap="round"/>
<path id="Ellipse 75" d="M30.6434 45.1277C33.1469 47.9651 36.995 50.8024 44.8301 50.8024C52.6652 50.8024 56.9306 47.9651 59.0169 45.1277" stroke="var(--stroke-0, #0C4068)" stroke-width="4" stroke-linecap="round"/>
<path id="Ellipse 74" d="M38.588 30.3735C38.588 28.4931 36.8095 26.9687 34.6157 26.9687C32.4218 26.9687 30.6434 28.4931 30.6434 30.3735" stroke="var(--stroke-0, #0C4068)" stroke-width="4" stroke-linecap="round"/>
<path id="Rectangle 1947" d="M27 78.9998H63.5947C64.3706 78.9998 65 79.6292 65 80.405V93.5945C65 94.3704 64.3706 94.9998 63.5947 94.9998H22.4053C21.6294 94.9998 21 94.3704 21 93.5945V84.9998C21 81.6861 23.6863 78.9998 27 78.9998Z" stroke="var(--stroke-0, #0C4068)" stroke-width="4"/>
</g>
</svg>
