<svg preserveAspectRatio="none" width="100%" height="100%" overflow="visible" style="display: block;" viewBox="0 0 120 121" fill="none" xmlns="http://www.w3.org/2000/svg">
<g id="Frame 12319">
<path id="Vector" d="M10.7167 98.4782C9.66125 99.3278 8.48327 99.2678 7.55346 98.3361C5.75037 96.5296 3.93158 94.7388 2.14734 92.9133C1.84264 92.6038 1.6793 92.1522 1.45941 91.7606C1.0856 91.0973 0.564147 90.472 0.378812 89.7614C-0.183474 87.6137 -0.262005 85.3334 1.14214 83.5648C3.35045 80.776 5.65299 77.9872 8.84138 76.2218C9.57329 75.8175 10.5157 75.6722 11.367 75.6438C12.7522 75.5996 14.1407 75.7701 15.5291 75.8017C15.7427 75.808 15.9972 75.5838 16.1731 75.4069C18.5039 73.0729 20.8253 70.7295 23.2095 68.326C21.2494 66.0742 20.2787 63.5223 20.775 60.4587C21.2839 57.3099 23.3603 55.5665 26.0649 54.2148C24.5163 51.7324 24.2493 49.1489 25.2922 46.458C26.3728 43.6724 28.8355 42.5007 31.3077 41.4111C29.9758 37.0368 32.2532 33.5817 35.2751 31.892C35.5892 31.7151 35.7966 31.3456 36.1704 30.9382H37.2667C37.2667 29.6559 37.097 28.38 37.3201 27.1798C37.4991 26.2165 38.0803 25.2911 38.6268 24.4479C39.1891 23.5794 39.7828 22.5876 40.6215 22.0728C42.6162 20.8443 44.8371 20.4053 47.2025 20.9011C47.6203 20.9896 48.1229 20.7748 48.5627 20.6295C49.5553 20.3042 50.5102 19.7136 51.5186 19.6252C54.8452 19.3251 58.0304 20.3832 61.2722 20.8948C61.4952 20.9295 61.7308 21.0306 61.9413 20.9927C63.5433 20.7085 64.8564 21.7318 66.3516 21.9465C67.9662 22.1802 69.562 22.5561 71.1766 22.8024C72.276 22.9698 73.4006 22.9572 74.4938 23.1498C75.3419 23.3014 76.1587 23.5036 76.6832 24.4479C76.9785 24.9816 77.9555 25.089 78.4015 25.588C79.6643 26.9998 80.4779 28.6389 80.302 30.6318C80.258 31.1403 80.2674 31.6583 80.302 32.1667C80.346 32.8458 80.4873 33.3195 81.3292 33.6132C84.5301 34.7344 85.9845 37.3842 86.751 40.4794C86.8923 41.0479 86.5562 41.7301 86.4714 42.3649C86.352 43.2618 86.3175 43.903 87.5709 44.2219C90.3572 44.9294 91.8618 47.0802 92.4775 49.7584C92.8042 51.1797 92.6628 52.7114 92.7351 54.2369C98.9454 55.4813 101.188 63.5539 96.379 68.1492C98.9988 70.78 101.622 73.414 104.342 76.146C106.682 75.0058 109.274 75.0374 111.837 76.3228C112.192 76.4997 112.522 76.7587 112.808 77.0366C114.303 78.4957 115.792 79.9643 117.259 81.455C117.828 82.033 118.355 82.6584 118.852 83.3026C119.841 84.5754 120.064 86.1451 119.986 87.6358C119.847 90.2793 118.44 92.3038 116.558 94.164C108.435 102.208 100.381 110.319 92.3676 118.473C90.0462 120.836 85.0013 121.853 82.2339 119.342C80.0413 117.355 77.8738 115.284 76.0236 112.984C74.0697 110.556 74.2613 107.726 75.6309 104.773C73.5954 102.751 71.4876 100.657 69.3829 98.5635C68.2709 97.4581 67.3443 95.9011 66.0061 95.3642C64.6208 94.8051 62.8428 95.2631 61.2376 95.222C59.2963 95.1747 57.3488 94.9473 55.4169 95.0483C54.5153 95.0957 53.4473 95.5158 52.7908 96.1316C50.0767 98.6867 47.5072 101.4 44.8434 104.012C44.3282 104.517 44.2843 104.915 44.5952 105.512C45.8109 107.83 45.5156 111.964 43.4738 113.935C41.4006 115.934 39.387 118 37.2321 119.907C36.5724 120.492 35.539 120.646 34.6783 121H31.8574C31.7035 120.845 31.5401 120.552 31.3925 120.561C29.6962 120.649 28.6565 119.506 27.5947 118.492C25.845 116.822 24.1613 115.081 22.4745 113.347C21.4598 112.302 21.4912 111.225 22.5059 110.338C23.5865 109.103 24.8178 109.077 26.0084 110.271C27.6984 111.97 29.3758 113.682 31.0815 115.362C32.1715 116.436 34.383 116.657 35.2091 115.801C36.7044 114.254 38.1619 112.672 39.6729 111.143C40.9451 109.854 40.7755 108.064 40.0121 107.006C39.3996 106.153 38.5829 105.445 37.8352 104.694C35.1526 101.987 32.4605 99.2931 29.7748 96.5896C25.0691 91.8521 20.3698 87.1084 15.6548 82.3773C14.4422 81.1613 13.2517 79.8412 11.2507 80.2454C11.0685 80.2833 10.8172 80.2328 10.7073 80.3402C9.13665 81.853 7.56602 83.3627 6.03937 84.9165C5.33887 85.6335 4.52528 86.4578 4.85825 87.5442C5.17552 88.5802 5.6687 89.6508 6.36292 90.4657C7.66026 91.9879 9.15864 93.3334 10.5691 94.7515C11.4046 95.5916 11.48 97.5023 10.7136 98.4719L10.7167 98.4782ZM74.6383 86.7483C75.4739 88.2675 75.3074 89.1423 74.2016 90.3899C73.2027 91.5174 72.3357 92.7617 71.5818 93.7313C73.7116 95.8758 76.2717 98.4561 78.8539 101.055C85.7835 94.085 92.8073 87.0105 99.8563 79.9612C100.444 79.3737 100.309 79.0421 99.7935 78.5368C97.7768 76.5597 95.7476 74.5889 93.8188 72.5234C93.0398 71.6896 92.6063 71.7844 91.8838 72.555C90.2032 74.3489 89.6598 74.3899 87.5928 73.2214C87.4892 72.8582 87.3635 72.4981 87.2944 72.1286C87.2316 71.8065 87.0902 71.3769 87.2316 71.1559C87.7279 70.3884 88.2808 69.643 88.9059 68.9798C90.1436 67.6628 91.4503 66.4121 92.7162 65.1235C93.8283 63.9929 94.5162 62.6664 94.111 61.0493C93.5393 58.7754 90.1467 57.9574 88.3153 59.6249C87.6211 60.2598 86.9646 60.9419 86.3238 61.6305C85.6076 62.4042 84.7374 62.6253 83.8139 62.2147C82.8652 61.7884 82.1333 61.0935 82.1804 59.9155C82.2024 59.4102 82.1019 58.7122 82.3815 58.4374C83.5626 57.291 85.0044 56.394 86.0819 55.1686C87.0306 54.0916 88.1269 53.062 87.9258 51.2018C87.797 50.0048 87.5049 49.3794 86.5123 48.8488C85.4819 48.2993 84.5081 48.3056 83.4338 48.6562C81.9009 49.1552 81.0213 50.4343 79.969 51.4892C78.656 52.803 76.8686 52.2503 76.0424 50.7944C75.3325 49.5405 76.41 48.8741 76.834 48.0372C77.8738 45.9874 80.2423 45.0463 81.1815 42.807C81.5459 41.9385 81.9292 40.2551 81.2632 39.355C80.0475 37.7064 77.4717 37.5832 76.0644 38.6349C74.9179 39.4908 73.8561 40.4636 72.7755 41.4079C72.0279 42.0617 70.9693 42.0459 70.2908 41.3195C69.3767 40.3436 69.3013 39.3771 70.4667 37.9054C71.7232 36.3199 73.2027 34.9113 74.61 33.449C76.0801 31.9267 76.2152 31.0077 75.1534 29.179C74.343 27.783 72.4991 27.0724 71.0887 27.6346C70.9253 27.7009 70.8028 27.8778 70.6646 28.0073C70.4258 28.2284 70.206 28.4779 69.9421 28.6642C69.5432 28.9516 69.0531 29.1316 68.7107 29.4696C66.9705 31.175 65.2396 32.8868 63.5779 34.6681C63.314 34.9524 63.3015 35.6061 63.3768 36.0546C63.5339 36.9863 63.8857 37.8833 64.0428 38.815C64.1465 39.4245 64.2281 40.5362 64.0082 40.6215C62.9936 41.0194 64.0177 41.6858 63.6596 42.1817C63.135 42.9113 62.9402 43.884 62.3936 44.5883C61.1811 46.1485 59.689 47.4087 57.5906 47.4466C56.5352 47.4655 55.9729 47.7782 55.819 48.8804C55.442 51.6123 54.129 53.7884 51.6568 55.0517C50.4034 55.6929 48.9961 56.0308 47.6266 56.5203C47.8245 60.5503 43.3859 64.296 39.4593 64.5835C38.2656 71.8412 32.5548 74.3078 26.9602 71.6264C24.3843 74.2162 21.8242 76.7902 19.2547 79.3737C26.1843 86.3378 33.1767 93.3492 40.1315 100.392C40.8037 101.071 41.165 100.907 41.7304 100.329C44.3408 97.6634 46.97 95.0104 49.6275 92.3922C50.1898 91.8395 50.8495 91.271 51.572 91.0184C54.3174 90.0519 57.1446 90.1467 60.0094 90.4404C61.8313 90.6267 63.7004 90.6204 65.5192 90.4341C67.2971 90.2509 68.8646 89.4266 70.0175 87.9548C70.3065 87.5853 70.6709 87.2758 71.0101 86.9505C72.298 85.7093 73.2467 85.6587 74.632 86.742L74.6383 86.7483ZM115.091 87.4716C115.192 87.4147 115.293 87.3547 115.393 87.2979C114.931 86.4641 114.583 85.5324 113.976 84.8218C112.962 83.628 111.705 82.6426 110.697 81.4456C109.098 79.5538 106.638 79.8475 105.065 81.4961C102.008 84.6955 98.7726 87.7179 95.6408 90.8446C90.6964 95.7842 85.7301 100.705 80.8611 105.72C78.6654 107.982 78.8162 109.472 81.081 111.749C82.0768 112.751 83.1825 113.67 84.0464 114.775C85.3908 116.493 87.6368 116.395 89.2389 114.775C96.1559 107.773 103.174 100.869 110.15 93.9303C111.328 92.7586 112.393 91.451 113.694 90.4435C114.746 89.6255 115.12 88.7002 115.088 87.4716H115.091ZM59.2492 37.7032C58.7309 37.5295 58.1435 37.4443 57.6786 37.16C55.9289 36.0862 54.0944 35.0945 52.5238 33.7901C50.727 32.2994 49.1846 30.515 48.2768 28.2631C47.925 27.3946 47.5292 26.3523 46.8287 25.8628C45.2078 24.7321 42.6759 25.7617 41.9786 27.6693C41.344 29.4001 42.1733 30.7329 43.301 31.8857C46.4863 35.1387 49.7438 38.3191 52.9164 41.5816C55.1562 43.884 57.3645 43.6629 59.0136 41.1521C59.221 40.8394 59.5728 40.5078 59.5665 40.1888C59.5477 39.3519 59.3655 38.5181 59.2524 37.7095L59.2492 37.7032ZM51.4212 47.7277C50.9626 46.9223 50.6422 45.9874 50.0202 45.3368C47.3596 42.5544 44.6141 39.854 41.8969 37.1253C40.1472 35.3661 39.6886 35.2271 37.5023 36.3704C35.4102 37.4664 34.961 39.8856 36.4217 41.4711C39.2143 44.503 42.1639 47.3992 45.1355 50.2574C46.1188 51.2018 47.3972 51.9913 48.8454 51.2112C50.1239 50.5227 51.1919 49.5658 51.4212 47.7277ZM32.8124 46.3159C31.2763 46.0632 30.3056 46.8528 29.7559 48.1951C29.225 49.49 29.2847 50.8386 30.2711 51.8745C32.5171 54.2369 34.7631 56.6151 37.185 58.7911C38.9724 60.3987 40.0593 60.0671 41.8121 58.5732C43.0686 57.5026 43.389 55.4939 42.0697 54.0695C40.0216 51.8555 37.8886 49.7237 35.8028 47.5445C34.9861 46.6886 34.0689 46.1169 32.8155 46.3159H32.8124ZM28.1539 58.769C27.0701 58.5574 26.1874 59.4923 25.6126 60.5566C24.9592 61.7694 25.0943 63.1212 26.0524 64.1981C27.0262 65.2878 28.0565 66.3331 29.1465 67.3027C30.7014 68.6829 33.871 67.8649 34.5275 65.9131C34.9673 64.6024 34.8228 63.3738 33.8019 62.2653C32.3255 60.6577 31.0564 58.788 28.1539 58.7659V58.769ZM61.6994 25.5343C61.7277 25.4554 61.756 25.3764 61.7842 25.2975C61.4544 25.4048 61.0994 25.6512 60.7947 25.6007C58.9665 25.2848 57.1446 24.9216 55.3321 24.53C54.9206 24.4416 54.5405 24.0215 54.1572 24.0373C53.4096 24.0689 52.6683 24.2994 51.7385 24.4826C52.9824 28.2505 55.7404 30.6192 58.7718 32.5489C60.8733 30.4581 62.868 28.4779 64.8721 26.485C63.8323 26.1723 62.7674 25.8533 61.7026 25.5343H61.6994Z" fill="var(--fill-0, #0C4068)"/>
<path id="Vector_2" d="M10.7167 98.4782C11.48 97.5055 11.4078 95.5979 10.5722 94.7577C9.15865 93.3365 7.66027 91.9911 6.36607 90.472C5.67185 89.6571 5.17867 88.5865 4.8614 87.5505C4.52843 86.4672 5.34201 85.6398 6.04252 84.9228C7.56603 83.3658 9.1398 81.8561 10.7104 80.3465C10.8204 80.2422 11.0717 80.2896 11.2539 80.2517C13.2549 79.8475 14.4454 81.1676 15.6579 82.3836C20.373 87.1115 25.0723 91.8584 29.7779 96.5959C32.4637 99.2994 35.1557 101.993 37.8384 104.7C38.586 105.452 39.4027 106.159 40.0153 107.012C40.7755 108.07 40.9482 109.861 39.676 111.149C38.1651 112.678 36.7075 114.26 35.2123 115.808C34.3861 116.664 32.1715 116.439 31.0847 115.369C29.379 113.689 27.7015 111.977 26.0115 110.278C24.8241 109.084 23.5928 109.106 22.509 110.344C20.9981 108.841 19.4871 107.34 17.973 105.837C18.6798 104.858 18.9782 103.813 18.2652 102.729C17.6118 101.734 16.55 101.801 15.5386 101.864C15.2433 101.883 14.9543 102.041 14.6653 102.132C13.8171 101.365 12.9659 100.604 12.124 99.83C11.6465 99.391 11.1879 98.933 10.723 98.4814L10.7167 98.4782Z" fill="var(--fill-0, #E48375)"/>
<path id="Vector_3" d="M89.5813 14.0792C88.6357 13.9529 88.0106 13.6971 87.5363 12.8412C86.9332 11.7547 87.0965 10.7977 87.8441 10.024C90.7278 7.03622 93.6649 4.09901 96.6208 1.18391C97.403 0.413286 98.9736 0.508035 99.7809 1.23128C100.708 2.06507 100.943 3.52104 99.96 4.55381C97.0763 7.58577 94.0701 10.5009 91.0702 13.416C90.7027 13.7729 90.087 13.8644 89.5844 14.0792H89.5813Z" fill="var(--fill-0, #0C4068)"/>
<path id="Vector_4" d="M29.8721 14.1171C29.3004 13.795 28.625 13.5739 28.1727 13.1286C25.4021 10.4124 22.6786 7.64893 19.952 4.89174C19.685 4.62329 19.4526 4.30114 19.2766 3.96636C18.6798 2.82622 18.862 1.84083 19.7573 1.19338C20.7719 0.457501 22.0661 0.479609 22.9174 1.25023C23.1184 1.43341 23.3037 1.6387 23.4954 1.83452C26.2094 4.56328 28.9172 7.30152 31.6438 10.0176C32.3851 10.7598 32.561 11.6063 32.1684 12.538C31.7726 13.476 31.0532 13.9845 29.8753 14.1108L29.8721 14.1171Z" fill="var(--fill-0, #0C4068)"/>
<path id="Vector_5" d="M57.4933 7.52576C57.4933 5.79186 57.5404 4.05796 57.4776 2.32721C57.4367 1.20602 58.0901 0.0563998 59.5037 0.00270889C60.9141 -0.0509821 62.1203 0.694375 62.1643 2.15666C62.2743 5.81397 62.2397 9.48074 62.18 13.1412C62.158 14.4077 60.8199 15.3931 59.4942 15.3141C58.3037 15.2446 57.5121 14.3287 57.4995 12.9549C57.4838 11.1452 57.4964 9.3323 57.4964 7.51944L57.4933 7.52576Z" fill="var(--fill-0, #0C4068)"/>
<path id="Vector_6" d="M14.659 102.129C14.9511 102.034 15.237 101.877 15.5323 101.861C16.5438 101.798 17.6086 101.731 18.2589 102.726C18.9688 103.809 18.6704 104.855 17.9667 105.834C16.1731 106.781 15.1239 106.402 14.4831 105.575C13.7637 104.653 13.7794 103.582 14.659 102.129Z" fill="var(--fill-0, #0C4068)"/>
<path id="Vector_7" d="M74.6414 86.7483C73.253 85.6619 72.3075 85.7156 71.0195 86.9568C70.6803 87.2821 70.3128 87.5916 70.0269 87.9611C68.8741 89.4329 67.3034 90.2604 65.5286 90.4404C63.7098 90.6267 61.8376 90.633 60.0188 90.4467C57.154 90.153 54.3269 90.0582 51.5814 91.0247C50.8589 91.2805 50.1992 91.8458 49.637 92.3985C46.9763 95.0167 44.3502 97.6666 41.7398 100.335C41.1744 100.913 40.8131 101.078 40.1409 100.398C33.183 93.3555 26.1937 86.3441 19.2641 79.3801C21.8336 76.7966 24.3938 74.2226 26.9696 71.6328C32.5673 74.311 38.275 71.8444 39.4687 64.5898C43.3984 64.3024 47.8339 60.5566 47.636 56.5267C49.0087 56.0371 50.4128 55.6992 51.6662 55.0581C54.1384 53.7916 55.4514 51.6187 55.8284 48.8867C55.9792 47.7845 56.5446 47.4718 57.6001 47.4529C59.6984 47.415 61.1937 46.158 62.4031 44.5946C62.9496 43.8903 63.1444 42.9176 63.669 42.188C64.0239 41.6922 63.003 41.0226 64.0177 40.6278C64.2375 40.5425 64.1527 39.4308 64.0522 38.8213C63.8952 37.8896 63.5433 36.9926 63.3863 36.0609C63.3109 35.6124 63.3203 34.9587 63.5873 34.6744C65.249 32.8963 66.9799 31.1814 68.7201 29.4759C69.0657 29.1379 69.5526 28.9579 69.9515 28.6705C70.2154 28.481 70.4321 28.2347 70.674 28.0136C70.8122 27.8841 70.9316 27.7072 71.0981 27.6409C72.5085 27.0787 74.3524 27.7894 75.1629 29.1853C76.2215 31.014 76.0895 31.9299 74.6194 33.4553C73.2121 34.9145 71.7326 36.3262 70.4761 37.9117C69.3107 39.3803 69.3861 40.3499 70.3002 41.3258C70.9787 42.0522 72.0404 42.068 72.7849 41.4142C73.8624 40.4699 74.9273 39.4971 76.0738 38.6412C77.4811 37.5895 80.057 37.7127 81.2726 39.3613C81.9386 40.2646 81.5553 41.9448 81.1909 42.8134C80.2517 45.0526 77.8863 45.9938 76.8434 48.0435C76.4194 48.8773 75.3388 49.5468 76.0518 50.8007C76.878 52.2566 78.6654 52.8093 79.9784 51.4955C81.0307 50.4406 81.9103 49.1615 83.4432 48.6625C84.5176 48.3119 85.4913 48.3056 86.5217 48.8552C87.5143 49.3858 87.8033 50.0111 87.9352 51.2081C88.1363 53.0683 87.04 54.0979 86.0913 55.1749C85.0139 56.4003 83.572 57.2973 82.3909 58.4437C82.1113 58.7153 82.2119 59.4165 82.1899 59.9218C82.1427 61.0999 82.8747 61.7978 83.8233 62.2211C84.7469 62.6348 85.6138 62.4105 86.3332 61.6368C86.974 60.9451 87.6305 60.2661 88.3248 59.6313C90.1561 57.9637 93.5487 58.7817 94.1204 61.0556C94.5256 62.6727 93.8377 63.9992 92.7257 65.1298C91.4597 66.4184 90.153 67.6691 88.9153 68.9861C88.2902 69.6494 87.7373 70.3947 87.241 71.1622C87.0997 71.3801 87.241 71.8096 87.3038 72.1349C87.373 72.5045 87.5017 72.8645 87.6023 73.2277C87.3478 73.6067 87.1405 74.0331 86.8295 74.3584C85.2934 75.9817 83.7291 77.5767 82.1773 79.1842C80.7323 78.3884 79.325 78.4894 78.4863 79.4495C77.6884 80.3623 77.7418 81.2403 78.6685 82.4468C77.3303 83.8838 75.9922 85.3176 74.6508 86.7547L74.6414 86.7483Z" fill="var(--fill-0, white)"/>
<path id="Vector_8" d="M115.095 87.4747C115.129 88.7002 114.755 89.6287 113.7 90.4467C112.399 91.4542 111.331 92.7649 110.157 93.9334C103.18 100.875 96.1622 107.779 89.2452 114.778C87.6431 116.398 85.4002 116.496 84.0526 114.778C83.1857 113.673 82.0831 112.754 81.0873 111.753C78.8224 109.475 78.6717 107.985 80.8674 105.723C85.7364 100.708 90.6996 95.7842 95.647 90.8478C98.7789 87.7211 102.014 84.6954 105.071 81.4993C106.645 79.8506 109.107 79.5601 110.703 81.4487C111.715 82.6457 112.971 83.6311 113.983 84.8249C114.586 85.5355 114.934 86.4672 115.399 87.301C115.299 87.3579 115.198 87.4179 115.098 87.4747H115.095Z" fill="var(--fill-0, #E48375)"/>
<path id="Vector_9" d="M74.6414 86.7483C75.9796 85.3113 77.3178 83.8774 78.6591 82.4404C79.2968 82.9363 79.8151 83.5837 80.8266 83.2711C82.4003 82.7847 83.3239 80.9466 82.1679 79.1779C83.7228 77.5735 85.284 75.9754 86.8201 74.352C87.1311 74.0236 87.3384 73.6004 87.5929 73.2214C89.6598 74.3899 90.2032 74.3489 91.8838 72.555C92.6063 71.7812 93.0398 71.6896 93.8188 72.5234C95.7476 74.5858 97.7768 76.5565 99.7935 78.5368C100.309 79.0421 100.441 79.3737 99.8564 79.9612C92.8074 87.0105 85.7835 94.0882 78.8539 101.055C76.2717 98.4561 73.7116 95.879 71.5818 93.7313C72.3357 92.7586 73.2027 91.5142 74.2016 90.3898C75.3074 89.1423 75.4739 88.2675 74.6383 86.7483H74.6414Z" fill="var(--fill-0, white)"/>
<path id="Vector_10" d="M59.2492 37.7032C59.3623 38.5118 59.5445 39.3455 59.5633 40.1825C59.5696 40.4983 59.2178 40.8299 59.0105 41.1458C57.3613 43.6535 55.1562 43.8777 52.9133 41.5753C49.7375 38.3128 46.48 35.1324 43.2979 31.8793C42.1702 30.7266 41.3409 29.3938 41.9754 27.663C42.6759 25.7586 45.2078 24.7258 46.8255 25.8565C47.526 26.346 47.925 27.3883 48.2736 28.2568C49.1846 30.5086 50.7238 32.2931 52.5206 33.7838C54.0913 35.0882 55.9258 36.0799 57.6754 37.1537C58.1404 37.4379 58.7278 37.5232 59.2461 37.6969L59.2492 37.7032Z" fill="var(--fill-0, white)"/>
<path id="Vector_11" d="M51.4212 47.7276C51.1919 49.5658 50.1238 50.5227 48.8454 51.2112C47.3972 51.9913 46.1187 51.2018 45.1355 50.2574C42.1639 47.3992 39.2174 44.503 36.4217 41.4711C34.961 39.8856 35.407 37.4664 37.5022 36.3704C39.6886 35.224 40.1472 35.3661 41.8969 37.1253C44.6141 39.854 47.3595 42.5544 50.0202 45.3368C50.639 45.9843 50.9626 46.9223 51.4212 47.7276Z" fill="var(--fill-0, white)"/>
<path id="Vector_12" d="M32.8124 46.3191C34.0689 46.1201 34.983 46.6949 35.7997 47.5476C37.8855 49.7268 40.0216 51.8555 42.0665 54.0727C43.3859 55.497 43.0655 57.5057 41.8089 58.5764C40.0561 60.0703 38.9661 60.4019 37.1819 58.7943C34.7631 56.6182 32.5139 54.24 30.2679 51.8776C29.2847 50.8417 29.2219 49.4931 29.7528 48.1982C30.3025 46.856 31.2731 46.0632 32.8092 46.3191H32.8124Z" fill="var(--fill-0, white)"/>
<path id="Vector_13" d="M28.1539 58.7722C31.0595 58.7943 32.3255 60.664 33.8018 62.2716C34.8196 63.3801 34.9641 64.6087 34.5275 65.9194C33.8741 67.8712 30.7046 68.6892 29.1465 67.309C28.0565 66.3395 27.023 65.2941 26.0524 64.2044C25.0943 63.1306 24.9561 61.7757 25.6126 60.5629C26.1874 59.4986 27.0701 58.5637 28.1539 58.7753V58.7722Z" fill="var(--fill-0, white)"/>
<path id="Vector_14" d="M61.6994 25.5406C62.7643 25.8596 63.8292 26.1818 64.8689 26.4913C62.8648 28.4842 60.8733 30.4644 58.7686 32.5552C55.7373 30.6223 52.9793 28.2536 51.7353 24.4889C52.6651 24.3026 53.4065 24.0752 54.1541 24.0436C54.5373 24.0278 54.9174 24.4479 55.3289 24.5363C57.1446 24.9279 58.9634 25.2943 60.7916 25.607C61.0963 25.6607 61.4512 25.4112 61.7811 25.3038C61.7528 25.3827 61.7245 25.4617 61.6963 25.5406H61.6994Z" fill="var(--fill-0, white)"/>
<path id="Vector_15" d="M82.1679 79.1779C83.3239 80.9465 82.4003 82.7815 80.8266 83.271C79.8119 83.5837 79.2936 82.9394 78.6591 82.4404C77.7324 81.2339 77.679 80.3559 78.4769 79.4432C79.3188 78.4831 80.726 78.382 82.1679 79.1779Z" fill="var(--fill-0, #0C4068)"/>
</g>
</svg>
