<svg preserveAspectRatio="none" width="100%" height="100%" overflow="visible" style="display: block;" viewBox="0 0 109 91" fill="none" xmlns="http://www.w3.org/2000/svg">
<g id="Frame 12456">
<path id="Rectangle 1908" d="M103 78V80H105V78H103ZM5 78H3V80H5V78ZM29 21C30.1046 21 31 20.1046 31 19C31 17.8954 30.1046 17 29 17V19V21ZM84.953 19L96.5 30.547L108.047 19L96.5 7.45299L84.953 19ZM103 25.5H101V78H103H105V25.5H103ZM103 78V76H5V78V80H103V78ZM5 78H7V30H5H3V78H5ZM16 19V21H29V19V17H16V19ZM103 25.5H105C105 20.8056 101.194 17 96.5 17V19V21C98.9853 21 101 23.0147 101 25.5H103ZM5 30H7C7 25.0294 11.0294 21 16 21V19V17C8.8203 17 3 22.8203 3 30H5Z" fill="var(--stroke-0, #0C4068)"/>
<g id="Frame 12457">
<rect id="Rectangle 1893" x="42.3333" y="15.3034" width="27.2963" height="60.6966" rx="3" fill="var(--fill-0, white)"/>
<g id="Rectangle 1895">
</g>
<rect id="Rectangle 1894" x="20" y="32.764" width="27.2963" height="43.236" rx="3" fill="var(--fill-0, white)"/>
<path id="Rectangle 1890" d="M40.679 76V71.427M53.9136 15.3034H43.679C42.0222 15.3034 40.679 16.6465 40.679 18.3034V51.4719" stroke="var(--stroke-0, #0C4068)" stroke-width="4" stroke-linecap="round" stroke-linejoin="round"/>
<path id="Rectangle 1891" d="M87 76V57.2921M59.7037 76V60.618M59.7037 19.0449V5C59.7037 3.34315 61.0469 2 62.7037 2H84C85.6569 2 87 3.34315 87 5V46.0674M87 51.4719V51.8876" stroke="var(--stroke-0, #0C4068)" stroke-width="4" stroke-linecap="round" stroke-linejoin="round"/>
<g id="Union">
<mask id="path-6-outside-1_0_198" maskUnits="userSpaceOnUse" x="18.8937" y="18.1178" width="59" height="54" fill="black">
<rect fill="white" x="18.8937" y="18.1178" width="59" height="54"/>
<path fill-rule="evenodd" clip-rule="evenodd" d="M71.2705 23.3715C71.1237 22.8653 70.7566 22.4534 70.2723 22.2511C69.7879 22.0488 69.2385 22.0779 68.7781 22.3304L61.1561 26.5094C60.3162 26.9699 60.0067 28.0276 60.4648 28.8719C60.923 29.7161 61.9752 30.0272 62.8151 29.5667L66.1074 27.7616C59.1218 47.1424 48.6491 56.2996 39.9502 60.6517C35.4027 62.9268 31.2892 63.914 28.3275 64.3334C26.847 64.543 25.657 64.6104 24.8483 64.6262C24.4442 64.6341 24.1358 64.6291 23.9346 64.6226C23.8341 64.6193 23.7604 64.6157 23.715 64.6132C23.6923 64.6119 23.6651 64.6101 23.6683 64.6103L23.6651 64.6101L22.8949 64.61C22.8949 64.61 22.8921 66.3682 22.8949 66.2631L22.8949 68.0816L23.4352 68.085C23.4566 68.0864 23.4854 68.0882 23.5214 68.0903C23.5936 68.0943 23.6948 68.0992 23.8235 68.1033C24.081 68.1116 24.4489 68.1172 24.9156 68.1081C25.8487 68.0898 27.1786 68.013 28.8108 67.7819C32.0744 67.3198 36.5573 66.2392 41.4939 63.7694C51.0179 59.0045 62.0463 49.1607 69.3176 29.0784L70.3697 32.7047C70.6376 33.6279 71.5993 34.158 72.5178 33.8887C73.4362 33.6195 73.9636 32.6528 73.6957 31.7296L71.2705 23.3715Z"/>
</mask>
<path fill-rule="evenodd" clip-rule="evenodd" d="M71.2705 23.3715C71.1237 22.8653 70.7566 22.4534 70.2723 22.2511C69.7879 22.0488 69.2385 22.0779 68.7781 22.3304L61.1561 26.5094C60.3162 26.9699 60.0067 28.0276 60.4648 28.8719C60.923 29.7161 61.9752 30.0272 62.8151 29.5667L66.1074 27.7616C59.1218 47.1424 48.6491 56.2996 39.9502 60.6517C35.4027 62.9268 31.2892 63.914 28.3275 64.3334C26.847 64.543 25.657 64.6104 24.8483 64.6262C24.4442 64.6341 24.1358 64.6291 23.9346 64.6226C23.8341 64.6193 23.7604 64.6157 23.715 64.6132C23.6923 64.6119 23.6651 64.6101 23.6683 64.6103L23.6651 64.6101L22.8949 64.61C22.8949 64.61 22.8921 66.3682 22.8949 66.2631L22.8949 68.0816L23.4352 68.085C23.4566 68.0864 23.4854 68.0882 23.5214 68.0903C23.5936 68.0943 23.6948 68.0992 23.8235 68.1033C24.081 68.1116 24.4489 68.1172 24.9156 68.1081C25.8487 68.0898 27.1786 68.013 28.8108 67.7819C32.0744 67.3198 36.5573 66.2392 41.4939 63.7694C51.0179 59.0045 62.0463 49.1607 69.3176 29.0784L70.3697 32.7047C70.6376 33.6279 71.5993 34.158 72.5178 33.8887C73.4362 33.6195 73.9636 32.6528 73.6957 31.7296L71.2705 23.3715Z" fill="var(--fill-0, #E48375)"/>
<path d="M70.2723 22.2511L71.814 18.5601V18.5601L70.2723 22.2511ZM71.2705 23.3715L67.429 24.4861L67.429 24.4861L71.2705 23.3715ZM68.7781 22.3304L70.7011 25.8378L70.7011 25.8378L68.7781 22.3304ZM61.1561 26.5094L59.233 23.002V23.002L61.1561 26.5094ZM60.4648 28.8719L56.9491 30.7796L56.9491 30.7796L60.4648 28.8719ZM62.8151 29.5667L64.7382 33.0741V33.0741L62.8151 29.5667ZM66.1074 27.7616L69.8705 29.1179C70.4344 27.5533 69.9714 25.803 68.7075 24.7219C67.4436 23.6408 65.6427 23.4546 64.1844 24.2542L66.1074 27.7616ZM39.9502 60.6517L38.1605 57.0744H38.1605L39.9502 60.6517ZM28.3275 64.3334L27.7667 60.3729H27.7667L28.3275 64.3334ZM24.8483 64.6262L24.7702 60.6269H24.7702L24.8483 64.6262ZM23.9346 64.6226L24.0636 60.6247H24.0635L23.9346 64.6226ZM23.715 64.6132L23.9398 60.6195L23.9391 60.6195L23.715 64.6132ZM23.4298 68.6032C25.635 68.7349 27.5295 67.054 27.6612 64.8488C27.7929 62.6436 26.1119 60.7491 23.9067 60.6174L23.6683 64.6103L23.4298 68.6032ZM23.6651 64.6101L23.9036 60.6172C23.8245 60.6125 23.7453 60.6101 23.6661 60.6101L23.6651 64.6101ZM22.8949 64.61L22.8958 60.61C20.6888 60.6094 18.8984 62.3966 18.8949 64.6037L22.8949 64.61ZM22.8949 66.2631L26.8949 66.263C26.8949 64.0744 25.1359 62.2922 22.9475 62.2634C20.7591 62.2346 18.9539 63.97 18.8963 66.1578L22.8949 66.2631ZM22.8949 68.0816L18.8949 68.0817C18.8949 70.2812 20.6709 72.0681 22.8704 72.0816L22.8949 68.0816ZM23.4352 68.085L23.7057 64.0941C23.6238 64.0886 23.5418 64.0855 23.4597 64.085L23.4352 68.085ZM23.5214 68.0903L23.7461 64.0966H23.7461L23.5214 68.0903ZM23.8235 68.1033L23.6945 72.1013H23.6946L23.8235 68.1033ZM24.9156 68.1081L24.8375 64.1088H24.8375L24.9156 68.1081ZM28.8108 67.7819L29.3716 71.7424H29.3716L28.8108 67.7819ZM41.4939 63.7694L43.2836 67.3467H43.2836L41.4939 63.7694ZM69.3176 29.0784L73.1591 27.9638C72.6765 26.3005 71.1784 25.1368 69.4475 25.0805C67.7166 25.0243 66.1461 26.0883 65.5565 27.7167L69.3176 29.0784ZM70.3697 32.7047L74.2113 31.59L74.2113 31.59L70.3697 32.7047ZM72.5178 33.8887L71.3924 30.0503L71.3924 30.0503L72.5178 33.8887ZM73.6957 31.7296L69.8541 32.8442V32.8442L73.6957 31.7296ZM70.2723 22.2511L68.7306 25.942C68.0927 25.6756 67.6178 25.1371 67.429 24.4861L71.2705 23.3715L75.1121 22.2568C74.6295 20.5936 73.4205 19.2311 71.814 18.5601L70.2723 22.2511ZM68.7781 22.3304L70.7011 25.8378C70.0952 26.17 69.3695 26.2089 68.7306 25.942L70.2723 22.2511L71.814 18.5601C70.2063 17.8886 68.3818 17.9858 66.855 18.823L68.7781 22.3304ZM61.1561 26.5094L63.0792 30.0168L70.7011 25.8378L68.7781 22.3304L66.855 18.823L59.233 23.002L61.1561 26.5094ZM60.4648 28.8719L63.9806 26.9641C64.5678 28.0463 64.1796 29.4135 63.0792 30.0168L61.1561 26.5094L59.233 23.002C56.4528 24.5264 55.4456 28.0089 56.9491 30.7796L60.4648 28.8719ZM62.8151 29.5667L60.892 26.0593C62.0045 25.4494 63.3869 25.8701 63.9806 26.9641L60.4648 28.8719L56.9491 30.7796C58.459 33.5622 61.9459 34.6051 64.7382 33.0741L62.8151 29.5667ZM66.1074 27.7616L64.1844 24.2542L60.892 26.0593L62.8151 29.5667L64.7382 33.0741L68.0305 31.269L66.1074 27.7616ZM39.9502 60.6517L41.7399 64.2289C51.4069 59.3925 62.5558 49.4115 69.8705 29.1179L66.1074 27.7616L62.3444 26.4052C55.6878 44.8733 45.8912 53.2066 38.1605 57.0744L39.9502 60.6517ZM28.3275 64.3334L28.8883 68.2939C32.2004 67.8249 36.742 66.7294 41.7399 64.2289L39.9502 60.6517L38.1605 57.0744C34.0633 59.1242 30.378 60.0031 27.7667 60.3729L28.3275 64.3334ZM24.8483 64.6262L24.9264 68.6254C25.8795 68.6068 27.2318 68.5284 28.8883 68.2939L28.3275 64.3334L27.7667 60.3729C26.4622 60.5576 25.4344 60.614 24.7702 60.6269L24.8483 64.6262ZM23.9346 64.6226L23.8057 68.6205C24.0721 68.6291 24.4497 68.6347 24.9264 68.6254L24.8483 64.6262L24.7702 60.6269C24.4387 60.6334 24.1994 60.629 24.0636 60.6247L23.9346 64.6226ZM23.715 64.6132L23.4902 68.6068C23.5668 68.6112 23.6725 68.6162 23.8057 68.6205L23.9346 64.6226L24.0635 60.6247C23.9957 60.6225 23.9539 60.6203 23.9398 60.6195L23.715 64.6132ZM23.6683 64.6103L23.9067 60.6174C23.9065 60.6174 23.8942 60.6167 23.879 60.6159C23.8745 60.6156 23.8653 60.6152 23.8536 60.6146C23.8505 60.6145 23.8136 60.6127 23.7672 60.6115C23.7532 60.6112 23.7192 60.6106 23.6992 60.6104C23.6682 60.6103 23.5828 60.6112 23.5285 60.6127C23.4089 60.6187 22.8296 60.6992 22.3811 60.823C19.7317 63.8994 21.8589 68.1778 22.6639 68.4822C22.8181 68.519 23.0378 68.5603 23.1023 68.5701C23.1374 68.575 23.1948 68.5822 23.2169 68.5848C23.2575 68.5894 23.2892 68.5923 23.2998 68.5933C23.3257 68.5957 23.3459 68.5973 23.3513 68.5977C23.3598 68.5984 23.3666 68.5989 23.3704 68.5992C23.3781 68.5998 23.3841 68.6002 23.3867 68.6004C23.3924 68.6008 23.3969 68.6011 23.3985 68.6012C23.405 68.6017 23.4107 68.602 23.4124 68.6021C23.4182 68.6025 23.4249 68.6029 23.4321 68.6034C23.4453 68.6042 23.4673 68.6056 23.4908 68.6069L23.715 64.6132L23.9391 60.6195C23.9399 60.6195 23.937 60.6193 23.9318 60.619C23.9297 60.6189 23.9289 60.6188 23.9297 60.6189C23.93 60.6189 23.9307 60.6189 23.9317 60.619C23.9323 60.619 23.9349 60.6192 23.9384 60.6195C23.9398 60.6195 23.9441 60.6198 23.9496 60.6202C23.9521 60.6204 23.9581 60.6208 23.9657 60.6214C23.9695 60.6217 23.9763 60.6222 23.9848 60.6229C23.9902 60.6233 24.0104 60.6249 24.0362 60.6273C24.0469 60.6283 24.0786 60.6312 24.1191 60.6358C24.1413 60.6384 24.1986 60.6456 24.2338 60.6505C24.2982 60.6603 24.518 60.7017 24.6722 60.7384C25.4772 61.0428 27.6044 65.3212 24.9549 68.3976C24.5064 68.5215 23.9272 68.6019 23.8075 68.6079C23.7532 68.6094 23.6679 68.6103 23.6369 68.6102C23.6169 68.61 23.5828 68.6094 23.5688 68.6091C23.5225 68.6079 23.4856 68.6061 23.4825 68.606C23.4708 68.6055 23.4616 68.605 23.4571 68.6047C23.4421 68.6039 23.4299 68.6032 23.4298 68.6032L23.6683 64.6103ZM23.6651 64.6101L23.4267 68.603L23.4298 68.6032L23.6683 64.6103L23.9067 60.6174L23.9036 60.6172L23.6651 64.6101ZM22.8949 64.61L22.894 68.61L23.6642 68.6101L23.6651 64.6101L23.6661 60.6101L22.8958 60.61L22.8949 64.61ZM22.8949 66.2631L18.8963 66.1578C18.8964 66.1547 18.8975 66.1084 18.9007 66.0495C18.9007 66.0486 18.9066 65.9202 18.9267 65.7624C18.9336 65.7108 18.954 65.5812 18.9684 65.5033C18.9964 65.3714 19.1084 64.9776 19.2059 64.7207C19.5774 64.0326 22.1035 62.3466 24.3927 62.5587C25.5481 63.2744 26.5755 64.7018 26.7156 65.0841C26.7643 65.2548 26.8248 65.5233 26.8418 65.6194C26.8513 65.6802 26.8652 65.7832 26.8701 65.8251C26.8793 65.9076 26.8838 65.9724 26.8856 65.9993C26.8896 66.0586 26.8913 66.1049 26.8919 66.119C26.8932 66.1549 26.8937 66.1822 26.8938 66.1877C26.8942 66.2119 26.8942 66.2249 26.8941 66.2023C26.8939 66.1733 26.8938 66.1204 26.8937 66.0457C26.8936 65.8992 26.8937 65.692 26.8939 65.4792C26.894 65.2669 26.8943 65.0511 26.8945 64.8883C26.8946 64.8069 26.8947 64.7389 26.8948 64.6912C26.8948 64.6673 26.8948 64.6485 26.8949 64.6358C26.8949 64.6294 26.8949 64.6245 26.8949 64.6212C26.8949 64.6195 26.8949 64.6183 26.8949 64.6175C26.8949 64.6171 26.8949 64.6167 26.8949 64.6165C26.8949 64.6164 26.8949 64.6164 26.8949 64.6163C26.8949 64.6163 26.8949 64.6163 26.8949 64.6163C26.8949 64.6162 26.8949 64.6162 22.8949 64.61C18.8949 64.6037 18.8949 64.6037 18.8949 64.6037C18.8949 64.6037 18.8949 64.6037 18.8949 64.6038C18.8949 64.6038 18.8949 64.6039 18.8949 64.604C18.8949 64.6042 18.8949 64.6045 18.8949 64.605C18.8949 64.6058 18.8949 64.6071 18.8949 64.6088C18.8949 64.6122 18.8949 64.6171 18.8949 64.6236C18.8949 64.6365 18.8948 64.6554 18.8948 64.6794C18.8947 64.7275 18.8946 64.7959 18.8945 64.8777C18.8943 65.0413 18.894 65.2585 18.8939 65.4727C18.8937 65.6862 18.8936 65.899 18.8937 66.0526C18.8938 66.1279 18.8939 66.1951 18.8942 66.2421C18.8942 66.2575 18.8944 66.2975 18.8951 66.3359C18.8953 66.345 18.8959 66.3751 18.8972 66.4128C18.8978 66.428 18.8996 66.475 18.9036 66.5349C18.9054 66.562 18.91 66.6271 18.9192 66.7097C18.9241 66.7517 18.938 66.8547 18.9475 66.9157C18.9645 67.0118 19.025 67.2803 19.0738 67.4511C19.2139 67.8334 20.2412 69.2608 21.3967 69.9765C23.6859 70.1886 26.212 68.5027 26.5835 67.8145C26.681 67.5576 26.793 67.1637 26.821 67.0318C26.8354 66.9539 26.8558 66.8242 26.8627 66.7725C26.8828 66.6144 26.8888 66.4855 26.8889 66.4838C26.8922 66.4234 26.8933 66.3748 26.8935 66.3683L22.8949 66.2631ZM22.8949 68.0816L26.8949 68.0816L26.8949 66.263L22.8949 66.2631L18.8949 66.2631L18.8949 68.0817L22.8949 68.0816ZM23.4352 68.085L23.4597 64.085L22.9195 64.0817L22.8949 68.0816L22.8704 72.0816L23.4106 72.0849L23.4352 68.085ZM23.5214 68.0903L23.7461 64.0966C23.7255 64.0954 23.7119 64.0945 23.7057 64.0941L23.4352 68.085L23.1646 72.0758C23.2012 72.0783 23.2453 72.0811 23.2968 72.084L23.5214 68.0903ZM23.8235 68.1033L23.9525 64.1054C23.8564 64.1023 23.7871 64.0989 23.7461 64.0966L23.5214 68.0903L23.2967 72.084C23.4 72.0898 23.5331 72.096 23.6945 72.1013L23.8235 68.1033ZM24.9156 68.1081L24.8375 64.1088C24.4434 64.1165 24.1446 64.1116 23.9525 64.1054L23.8235 68.1033L23.6946 72.1013C24.0174 72.1117 24.4544 72.1178 24.9937 72.1073L24.9156 68.1081ZM28.8108 67.7819L28.25 63.8214C26.7938 64.0276 25.6262 64.0934 24.8375 64.1088L24.9156 68.1081L24.9937 72.1073C26.0713 72.0863 27.5633 71.9984 29.3716 71.7424L28.8108 67.7819ZM41.4939 63.7694L39.7042 60.1921C35.2179 62.4366 31.1632 63.4089 28.2499 63.8214L28.8108 67.7819L29.3716 71.7424C32.9855 71.2306 37.8966 70.0418 43.2836 67.3467L41.4939 63.7694ZM69.3176 29.0784L65.5565 27.7167C58.6149 46.8887 48.2618 55.9107 39.7042 60.1921L41.4939 63.7694L43.2836 67.3467C53.774 62.0983 65.4778 51.4328 73.0786 30.4402L69.3176 29.0784ZM70.3697 32.7047L74.2113 31.59L73.1591 27.9638L69.3176 29.0784L65.476 30.1931L66.5282 33.8193L70.3697 32.7047ZM72.5178 33.8887L71.3924 30.0503C72.6139 29.6922 73.867 30.4033 74.2113 31.59L70.3697 32.7047L66.5282 33.8193C67.4083 36.8524 70.5847 38.6238 73.6431 37.7272L72.5178 33.8887ZM73.6957 31.7296L69.8541 32.8442C69.5122 31.6658 70.1794 30.4059 71.3924 30.0503L72.5178 33.8887L73.6431 37.7272C76.693 36.833 78.4149 33.6398 77.5372 30.6149L73.6957 31.7296ZM71.2705 23.3715L67.429 24.4861L69.8541 32.8442L73.6957 31.7296L77.5372 30.6149L75.1121 22.2568L71.2705 23.3715Z" fill="var(--stroke-0, #0C4068)" mask="url(#path-6-outside-1_0_198)"/>
</g>
<path id="Rectangle 1892" d="M20.8272 76V35.764C20.8272 34.1072 22.1703 32.764 23.8272 32.764H34.0617" stroke="var(--stroke-0, #0C4068)" stroke-width="4" stroke-linecap="round" stroke-linejoin="round"/>
</g>
<path id="Rectangle 1909" d="M6.07767 78H2V82C2 85.866 5.13401 89 9 89H100C103.866 89 107 85.866 107 82V78H102.922" stroke="var(--stroke-0, #0C4068)" stroke-width="4" stroke-linejoin="round"/>
</g>
</svg>
