<svg preserveAspectRatio="none" width="100%" height="100%" overflow="visible" style="display: block;" viewBox="0 0 103 107" fill="none" xmlns="http://www.w3.org/2000/svg">
<g id="Objects" clip-path="url(#clip0_0_129)">
<path id="Vector" d="M98.952 31.5534C96.358 25.4009 92.6448 19.8756 87.9166 15.1323C83.1877 10.3883 77.6808 6.66386 71.5472 4.06155C65.1958 1.3661 58.4515 0 51.5 0C44.5485 0 37.8042 1.3661 31.4528 4.06092C25.3199 6.66322 19.8123 10.3883 15.0834 15.1317C10.3546 19.8756 6.64198 25.4002 4.04797 31.5527C1.36175 37.9251 0 44.691 0 51.6647C0 55.6021 0.44402 59.5267 1.3188 63.3298C2.1702 67.0295 3.43531 70.6412 5.08002 74.0647C6.69441 77.4254 8.68144 80.6215 10.9855 83.5628C13.2739 86.4838 15.883 89.1647 18.7404 91.53C19.2665 91.9659 19.9032 92.1782 20.5361 92.1782C21.3496 92.1782 22.1574 91.8272 22.7158 91.1485C23.7086 89.9421 23.5381 88.1566 22.3355 87.1611C11.7302 78.381 5.64846 65.4429 5.64846 51.6647C5.64846 45.4533 6.86052 39.43 9.25052 33.7603C11.5597 28.2832 14.8661 23.3631 19.0783 19.1381C23.2905 14.9124 28.1943 11.5954 33.6539 9.27884C39.3049 6.88119 45.3096 5.66526 51.5013 5.66526C57.6929 5.66526 63.697 6.88119 69.3486 9.27884C74.8082 11.5954 79.7126 14.9124 83.9242 19.1381C88.1364 23.3637 91.4428 28.2832 93.752 33.7603C96.142 39.4294 97.3541 45.4533 97.3541 51.6647C97.3541 57.8761 96.1666 63.7752 93.8253 69.3942C91.5629 74.8225 88.3202 79.7116 84.1863 83.9258C83.0924 85.041 83.1069 86.8342 84.2185 87.9316C85.3302 89.0291 87.1182 89.0145 88.2115 87.8993C92.8526 83.168 96.4944 77.677 99.0354 71.579C101.667 65.2642 103.001 58.5636 103.001 51.6641C103.001 44.7645 101.64 37.9245 98.9527 31.5527L98.952 31.5534Z" fill="var(--fill-0, #0C4068)"/>
<path id="Vector_2" d="M53.8028 16.9489V13.5812C53.8028 12.9431 53.5451 12.3652 53.1283 11.947C52.7114 11.5288 52.1354 11.2703 51.4994 11.2703C50.2273 11.2703 49.1965 12.305 49.1965 13.5805V16.9483C49.1965 18.2244 50.2279 19.2585 51.4994 19.2585C52.7708 19.2585 53.8022 18.2238 53.8022 16.9483L53.8028 16.9489Z" fill="var(--fill-0, #0C4068)"/>
<path id="Vector_3" d="M16.8949 49.3545H13.5379C12.9018 49.3545 12.3258 49.613 11.909 50.0312C11.4921 50.4494 11.2344 51.0273 11.2344 51.6653C11.2344 52.9415 12.2658 53.9755 13.5372 53.9755H16.8942C18.1663 53.9755 19.1971 52.9408 19.1971 51.6653C19.1971 50.3898 18.1657 49.3551 16.8942 49.3551L16.8949 49.3545Z" fill="var(--fill-0, #0C4068)"/>
<path id="Vector_4" d="M86.1051 53.9749H89.4621C90.0982 53.9749 90.6742 53.7164 91.091 53.2982C91.5079 52.88 91.7656 52.3021 91.7656 51.6641C91.7656 50.3879 90.7342 49.3539 89.4628 49.3539H86.1058C84.8337 49.3539 83.8029 50.3886 83.8029 51.6641C83.8029 52.9396 84.8343 53.9743 86.1058 53.9743L86.1051 53.9749Z" fill="var(--fill-0, #0C4068)"/>
<path id="Vector_5" d="M23.9948 26.2315C23.149 27.1516 23.2071 28.5855 24.1249 29.4339L46.4958 50.1193C46.3461 50.6078 46.2652 51.1267 46.2652 51.6647C46.2652 54.5648 48.6091 56.9162 51.5 56.9162C54.3909 56.9162 56.7348 54.5648 56.7348 51.6647C56.7348 51.6229 56.7348 51.5811 56.7329 51.5392L66.7097 46.4544C67.822 45.8873 68.2654 44.5237 67.7007 43.4079C67.1354 42.2921 65.7756 41.8473 64.664 42.4137L54.6871 47.4986C53.8041 46.8181 52.6994 46.4132 51.5 46.4132C50.8134 46.4132 50.1585 46.5456 49.5578 46.787L27.1869 26.1016C26.2698 25.2532 24.8405 25.3115 23.9948 26.2322V26.2315Z" fill="var(--fill-0, #0C4068)"/>
<path id="Vector_6" d="M46.3473 100.123H39.1912L43.4514 95.5637C45.1694 93.7147 46.5564 91.7017 47.5752 89.5797C48.6136 87.4146 49.1403 85.4041 49.1403 83.6039C49.1403 81.4521 48.6887 79.5468 47.7988 77.9425C46.8981 76.3198 45.6058 75.0481 43.9561 74.1623C42.3297 73.2891 40.4052 72.8469 38.2356 72.8469C37.2067 72.8469 36.1362 73.0224 35.0517 73.3683C33.9881 73.708 32.9434 74.1908 31.9461 74.8035C30.9513 75.4156 30.0392 76.1341 29.2358 76.9401C28.6882 77.4894 28.2208 78.0331 27.8463 78.5558C27.384 79.2015 27.149 79.8903 27.149 80.6037C27.149 81.5339 27.5469 82.3811 28.2998 83.054C29.0325 83.7098 29.8592 84.0424 30.758 84.0424C31.1603 84.0424 31.5955 83.9651 32.0497 83.813C32.6017 83.6293 33.1051 83.2257 33.5889 82.5794C34.0297 81.999 34.5104 81.4813 35.0176 81.0416C35.5064 80.6177 36.0168 80.2844 36.5347 80.0506C37.0141 79.8339 37.4796 79.7242 37.9179 79.7242C39.111 79.7242 40.0306 80.0822 40.7292 80.8185C41.4404 81.5694 41.7859 82.5553 41.7859 83.8314C41.7859 84.6159 41.4928 85.5891 40.9143 86.722C40.306 87.9133 39.4641 89.0962 38.4112 90.238L28.536 100.827C27.8261 101.579 27.4661 102.469 27.4661 103.47C27.4661 104.471 27.78 105.314 28.3983 105.975C29.0331 106.655 29.8877 106.999 30.9387 106.999H46.3461C47.3194 106.999 48.1481 106.673 48.81 106.03C49.4801 105.379 49.8193 104.563 49.8193 103.606C49.8193 102.648 49.4833 101.79 48.8195 101.123C48.1563 100.458 47.3238 100.121 46.3461 100.121L46.3473 100.123Z" fill="var(--fill-0, #E48375)"/>
<path id="Vector_7" d="M73.2778 91.4856H71.63V77.013C71.63 75.9821 71.2927 75.1 70.627 74.3916C69.9467 73.6687 69.0701 73.3018 68.021 73.3018C67.3931 73.3018 66.8102 73.4342 66.2878 73.6966C65.7705 73.9563 65.3423 74.3131 65.0151 74.756L50.7136 92.3271C50.1206 93.0425 49.8199 93.8548 49.8199 94.7425C49.8199 95.7658 50.2362 96.6706 51.0238 97.3587C51.7849 98.0253 52.6091 98.363 53.4738 98.363H64.3204V103.289C64.3204 104.327 64.669 105.213 65.3549 105.92C66.0484 106.637 66.915 107.001 67.9294 107.001C68.9437 107.001 69.8539 106.641 70.5619 105.93C71.2699 105.22 71.6287 104.332 71.6287 103.289V98.3637H73.2766C74.2499 98.3637 75.0785 98.0373 75.7405 97.3942C76.4106 96.7428 76.7498 95.9274 76.7498 94.97C76.7498 94.0125 76.4137 93.154 75.7499 92.4874C75.0861 91.8227 74.2543 91.4856 73.2766 91.4856H73.2778ZM64.3216 91.4856H59.896L64.3216 85.9877V91.4856Z" fill="var(--fill-0, #E48375)"/>
</g>
<defs>
<clipPath id="clip0_0_129">
<rect width="103" height="107" fill="white"/>
</clipPath>
</defs>
</svg>
